<?xml version="1.0" encoding="UTF-8"?>
<svg width="180" height="180" viewBox="0 0 180 180" fill="none" xmlns="http://www.w3.org/2000/svg">
  <rect width="180" height="180" rx="40" fill="#4F46E5"/>
  <path d="M90 45C65.1472 45 45 65.1472 45 90C45 114.853 65.1472 135 90 135C114.853 135 135 114.853 135 90C135 65.1472 114.853 45 90 45ZM90 120C71.7746 120 57 105.225 57 87C57 68.7746 71.7746 54 90 54C108.225 54 123 68.7746 123 87C123 105.225 108.225 120 90 120Z" fill="white"/>
  <path d="M90 60C75.536 60 64 71.536 64 86C64 100.464 75.536 112 90 112C104.464 112 116 100.464 116 86C116 71.536 104.464 60 90 60ZM90 102C80.0589 102 72 93.9411 72 84C72 74.0589 80.0589 66 90 66C99.9411 66 108 74.0589 108 84C108 93.9411 99.9411 102 90 102Z" fill="white"/>
</svg> 